<svg width="128" height="85" viewBox="0 0 128 85" fill="none" xmlns="http://www.w3.org/2000/svg"> <path d="M43.7416 15.8313L48.0279 14.9759V0H42.6967C27.8549 0 16.5422 4.09594 9.06259 12.1762C-1.00259 23.0562 0.010324 37.0281 0.0423108 37.1875V79.6875C0.0423108 81.0965 0.603984 82.4477 1.60377 83.444C2.60355 84.4403 3.95954 85 5.37345 85H42.6914C48.5716 85 53.3537 80.2347 53.3537 74.375V37.1875C53.3537 35.7785 52.792 34.4273 51.7922 33.431C50.7924 32.4347 49.4365 31.875 48.0225 31.875H26.2768C26.3941 29.7394 26.9326 27.03 28.5639 24.4587C31.2774 20.2034 36.3793 17.3028 43.7416 15.8313Z" fill="#ED2024"/> <path d="M118.388 15.8313L122.674 14.9759V0H117.343C102.501 0 91.1885 4.09594 83.7089 12.1762C73.6437 23.0562 74.6566 37.0281 74.6886 37.1875V79.6875C74.6886 81.0965 75.2503 82.4477 76.2501 83.444C77.2499 84.4403 78.6059 85 80.0198 85H117.338C123.218 85 128 80.2347 128 74.375V37.1875C128 35.7785 127.438 34.4273 126.439 33.431C125.439 32.4347 124.083 31.875 122.669 31.875H100.923C101.04 29.7394 101.579 27.03 103.21 24.4587C105.924 20.2034 111.026 17.3028 118.388 15.8313Z" fill="#ED2024"/> </svg>